<?xml version="1.0" encoding="utf-8"?>
<!-- Generator: Adobe Illustrator 27.5.0, SVG Export Plug-In . SVG Version: 6.00 Build 0)  -->
<svg version="1.1" id="Layer_1" xmlns="http://www.w3.org/2000/svg" xmlns:xlink="http://www.w3.org/1999/xlink" x="0px" y="0px"
	 viewBox="0 0 191 44" style="enable-background:new 0 0 191 44;" xml:space="preserve">
<style type="text/css">
	.st0{fill:#FF6600;}
</style>
<path class="st0" d="M38,11L19,0L0,11v22l13.5,7.8V19.9l-3.2,1.5v13.8l-7-4.1V12.9L19,3.7l15.8,9.1v18.3l-7,4.1v-22l-3.2,1.5v26.1
	L38,33V11z"/>
<path class="st0" d="M17.4,18.1v25L19,44l1.6-0.9V16.6L17.4,18.1z"/>
<path d="M52.3,16.1H46v-2.8h16.2v2.8h-6.3v15.5h-3.6V16.1z M71.7,24.1c0-0.4-0.1-0.8-0.2-1.1c-0.1-0.4-0.3-0.7-0.6-1
	c-0.3-0.3-0.7-0.5-1-0.6c-0.4-0.2-0.9-0.3-1.4-0.3c-1,0-1.9,0.3-2.7,0.9c-0.7,0.6-1.1,1.3-1.2,2.1L71.7,24.1z M75.2,25.5v0.4
	c0,0.1,0,0.3,0,0.4H64.6c0,0.4,0.2,0.9,0.4,1.2c0.2,0.4,0.5,0.7,0.9,1c0.4,0.3,0.8,0.5,1.2,0.6c0.5,0.2,0.9,0.2,1.4,0.2
	c0.9,0,1.6-0.1,2.2-0.4c0.6-0.3,1.1-0.7,1.5-1.2l2.3,1.7c-1.4,1.7-3.4,2.5-6,2.5c-1.1,0-2.1-0.1-3-0.4c-0.9-0.3-1.7-0.7-2.4-1.3
	c-0.7-0.6-1.2-1.2-1.6-2c-0.4-0.8-0.5-1.7-0.5-2.7c0-1,0.2-1.9,0.5-2.7c0.4-0.8,0.9-1.5,1.6-2.1c0.7-0.6,1.5-1.1,2.3-1.3
	c0.9-0.3,1.9-0.5,2.9-0.5c1,0,1.9,0.1,2.7,0.4c0.8,0.3,1.5,0.7,2.1,1.3c0.6,0.6,1.1,1.2,1.4,2.1C75,23.4,75.2,24.4,75.2,25.5
	L75.2,25.5z M78.9,19.1h3.3v2.1h0.1c0.4-0.7,0.9-1.3,1.6-1.8c0.7-0.4,1.5-0.7,2.4-0.7c0.1,0,0.3,0,0.4,0c0.2,0,0.3,0,0.4,0.1v2.8
	c-0.4-0.1-0.7-0.1-1.1-0.1c-0.8,0-1.4,0.1-1.9,0.4c-0.5,0.3-0.9,0.6-1.1,0.9c-0.3,0.4-0.5,0.7-0.6,1.1c-0.1,0.4-0.1,0.7-0.1,0.9v6.6
	h-3.5V19.1z M106.3,18.8c0.9,0,1.7,0.1,2.3,0.4c0.7,0.3,1.2,0.6,1.6,1.1c0.4,0.5,0.7,1,0.9,1.6c0.2,0.6,0.3,1.2,0.3,1.9v7.8h-3.5
	v-6.9c0-0.4,0-0.7-0.1-1.1c-0.1-0.4-0.2-0.7-0.4-1.1c-0.2-0.3-0.5-0.6-0.8-0.8c-0.3-0.2-0.8-0.3-1.3-0.3c-0.5,0-1,0.1-1.4,0.3
	c-0.4,0.2-0.7,0.5-1,0.8c-0.3,0.3-0.4,0.7-0.6,1.1c-0.1,0.4-0.2,0.8-0.2,1.2v6.8h-3.5V24c0-0.8-0.2-1.4-0.6-1.9
	c-0.4-0.5-1.1-0.8-1.9-0.8c-0.5,0-1,0.1-1.4,0.3c-0.4,0.2-0.7,0.4-1,0.7c-0.2,0.3-0.4,0.7-0.6,1.1c-0.1,0.4-0.2,0.8-0.2,1.2v6.8
	h-3.5V19.1H93v2H93c0.2-0.3,0.4-0.6,0.6-0.9c0.3-0.3,0.6-0.5,0.9-0.7c0.4-0.2,0.8-0.4,1.2-0.5c0.5-0.1,1-0.2,1.5-0.2
	c1.1,0,2,0.2,2.7,0.6c0.7,0.4,1.3,1,1.7,1.7c0.4-0.7,1.1-1.3,1.9-1.7C104.3,19,105.2,18.8,106.3,18.8z M126.4,17.1
	c-0.4-0.4-0.9-0.8-1.7-1.1c-1.1-0.5-2.3-0.6-3.4-0.3c-0.4,0.1-0.8,0.2-1.2,0.4c-0.3,0.2-0.6,0.5-0.9,0.8c-0.2,0.3-0.3,0.7-0.3,1.1
	c0,0.4,0.1,0.8,0.3,1.1c0.2,0.3,0.5,0.5,0.8,0.7c0.3,0.2,0.8,0.4,1.2,0.5c0.5,0.2,1,0.3,1.6,0.5c0.7,0.2,1.3,0.4,2,0.6
	c0.7,0.2,1.3,0.5,1.9,1c0.6,0.4,1.1,0.9,1.4,1.5c0.4,0.6,0.6,1.4,0.6,2.2c0,1-0.2,1.8-0.6,2.6c-0.4,0.7-1,1.3-1.6,1.8
	c-0.7,0.5-1.5,0.8-2.4,1.1c-0.9,0.2-1.9,0.4-2.9,0.4c-1.3,0-2.6-0.2-3.9-0.6c-1.3-0.4-2.3-1.1-3.1-2l2.6-2.2c0.5,0.6,1.2,1.1,2,1.5
	c0.8,0.4,1.7,0.5,2.5,0.5c0.4,0,0.9,0,1.3-0.1c0.4-0.1,0.8-0.3,1.2-0.5c0.4-0.2,0.7-0.5,0.9-0.8c0.2-0.3,0.3-0.8,0.3-1.3
	c0-0.5-0.1-0.9-0.4-1.2c-0.3-0.3-0.6-0.6-1-0.8c-0.5-0.3-1-0.5-1.5-0.6l-1.8-0.5c-0.6-0.2-1.2-0.4-1.9-0.6c-0.6-0.2-1.2-0.6-1.7-1
	c-0.5-0.4-0.9-0.9-1.2-1.4c-0.3-0.6-0.5-1.3-0.5-2.2c0-0.9,0.2-1.7,0.6-2.4c0.4-0.7,1-1.2,1.7-1.7c0.7-0.5,1.6-0.8,2.4-1
	c0.9-0.2,1.8-0.3,2.8-0.3c1,0,2.1,0.2,3.2,0.5c1.1,0.3,2,0.8,2.8,1.5L126.4,17.1z M140.4,18.8c0.9,0,1.7,0.1,2.3,0.4
	c0.7,0.3,1.2,0.6,1.6,1.1c0.4,0.5,0.7,1,0.9,1.6c0.2,0.6,0.3,1.2,0.3,1.9v7.8H142v-6.8c0-0.4,0-0.7-0.1-1.1c0-0.4-0.2-0.7-0.4-1.1
	c-0.2-0.3-0.5-0.6-0.8-0.8c-0.3-0.2-0.8-0.3-1.3-0.3c-0.6,0-1,0.1-1.4,0.3c-0.4,0.2-0.7,0.4-1,0.8c-0.3,0.3-0.5,0.7-0.6,1.1
	c-0.1,0.4-0.2,0.8-0.2,1.2v6.8h-3.5V12h3.5v8.9h0.1c0.1-0.3,0.3-0.5,0.6-0.7c0.3-0.3,0.6-0.5,0.9-0.7c0.3-0.2,0.7-0.4,1.2-0.5
	C139.4,18.8,139.9,18.8,140.4,18.8L140.4,18.8z M159.6,24.1c0-0.4-0.1-0.8-0.2-1.1c-0.1-0.4-0.3-0.7-0.6-1c-0.3-0.3-0.7-0.5-1-0.6
	c-0.4-0.2-0.9-0.3-1.4-0.3c-1,0-1.9,0.3-2.7,0.9c-0.7,0.6-1.1,1.3-1.2,2.1L159.6,24.1z M163.1,25.5v0.4c0,0.1,0,0.3,0,0.4h-10.6
	c0,0.4,0.2,0.9,0.4,1.2c0.2,0.4,0.5,0.7,0.9,1c0.4,0.3,0.8,0.5,1.2,0.6c0.5,0.2,1,0.2,1.4,0.2c0.9,0,1.6-0.1,2.2-0.4
	c0.6-0.3,1.1-0.7,1.5-1.2l2.3,1.7c-1.4,1.7-3.4,2.5-6,2.5c-1.1,0-2.1-0.1-3-0.4c-0.9-0.3-1.7-0.7-2.4-1.3c-0.7-0.6-1.2-1.2-1.6-2
	c-0.4-0.8-0.6-1.7-0.6-2.7c0-1,0.2-1.9,0.6-2.7c0.4-0.8,0.9-1.5,1.6-2.1c0.7-0.6,1.5-1.1,2.3-1.3c0.9-0.3,1.9-0.5,2.9-0.5
	c1,0,1.9,0.1,2.7,0.4c0.8,0.3,1.5,0.7,2.1,1.3c0.6,0.6,1.1,1.2,1.4,2.1C162.9,23.4,163.1,24.4,163.1,25.5z M176.5,24.1
	c0-0.4-0.1-0.8-0.2-1.1c-0.1-0.4-0.3-0.7-0.6-1c-0.3-0.3-0.7-0.5-1-0.6c-0.4-0.2-0.9-0.3-1.4-0.3c-1,0-1.9,0.3-2.7,0.9
	c-0.7,0.6-1.1,1.3-1.2,2.1L176.5,24.1z M180,25.5v0.4c0,0.1,0,0.3,0,0.4h-10.6c0,0.4,0.2,0.9,0.4,1.2c0.2,0.4,0.5,0.7,0.9,1
	c0.4,0.3,0.8,0.5,1.2,0.6c0.5,0.2,1,0.2,1.4,0.2c0.9,0,1.6-0.1,2.2-0.4c0.6-0.3,1.1-0.7,1.5-1.2l2.3,1.7c-1.4,1.7-3.4,2.5-6,2.5
	c-1.1,0-2.1-0.1-3-0.4c-0.9-0.3-1.7-0.7-2.4-1.3c-0.7-0.6-1.2-1.2-1.6-2c-0.4-0.8-0.6-1.7-0.6-2.7c0-1,0.2-1.9,0.6-2.7
	c0.4-0.8,0.9-1.5,1.6-2.1c0.7-0.6,1.5-1.1,2.3-1.3c0.9-0.3,1.9-0.5,2.9-0.5c1,0,1.9,0.1,2.7,0.4c0.8,0.3,1.5,0.7,2.1,1.3
	c0.6,0.6,1.1,1.2,1.4,2.1C179.8,23.4,180,24.4,180,25.5L180,25.5z M181.7,21.6v-2.5h2.4v-3.6h3.4v3.6h3.5v2.5h-3.5v5.8
	c0,0.6,0.1,1,0.3,1.4c0.2,0.4,0.7,0.5,1.5,0.5c0.3,0,0.5,0,0.8-0.1c0.3-0.1,0.5-0.1,0.7-0.2l0.1,2.4c-0.4,0.1-0.7,0.2-1.1,0.2
	c-0.4,0.1-0.8,0.1-1.2,0.1c-0.9,0-1.7-0.1-2.3-0.3c-0.6-0.2-1-0.6-1.4-1c-0.3-0.4-0.6-0.9-0.7-1.4c-0.1-0.6-0.2-1.1-0.2-1.7v-5.8
	L181.7,21.6z"/>
</svg>
